<mxfile host="65bd71144e">
    <diagram id="9M2l0z-ekA3x6kQhXOeG" name="第 1 页">
        <mxGraphModel dx="948" dy="545" grid="1" gridSize="10" guides="1" tooltips="1" connect="1" arrows="1" fold="1" page="1" pageScale="1" pageWidth="827" pageHeight="1169" math="0" shadow="0">
            <root>
                <mxCell id="0"/>
                <mxCell id="1" parent="0"/>
                <mxCell id="3" value="" style="swimlane;startSize=0;" parent="1" vertex="1">
                    <mxGeometry x="23" y="90" width="780" height="360" as="geometry"/>
                </mxCell>
                <mxCell id="2" value="Python SOP" style="rounded=0;whiteSpace=wrap;html=1;" parent="3" vertex="1">
                    <mxGeometry x="258" y="270" width="120" height="40" as="geometry"/>
                </mxCell>
                <mxCell id="13" style="edgeStyle=none;html=1;entryX=0;entryY=0.5;entryDx=0;entryDy=0;fontSize=15;" parent="3" source="16" target="2" edge="1">
                    <mxGeometry relative="1" as="geometry">
                        <mxPoint x="191.32999999999993" y="114.62000000000012" as="sourcePoint"/>
                    </mxGeometry>
                </mxCell>
                <mxCell id="35" value="调用" style="edgeLabel;html=1;align=center;verticalAlign=middle;resizable=0;points=[];fontSize=10;" parent="13" vertex="1" connectable="0">
                    <mxGeometry x="-0.269" relative="1" as="geometry">
                        <mxPoint as="offset"/>
                    </mxGeometry>
                </mxCell>
                <mxCell id="9" value="Python Module" style="rounded=0;whiteSpace=wrap;html=1;fontSize=15;" parent="3" vertex="1">
                    <mxGeometry x="38" y="240" width="110" height="30" as="geometry"/>
                </mxCell>
                <mxCell id="21" style="edgeStyle=none;html=1;exitX=0;exitY=0.5;exitDx=0;exitDy=0;entryX=1;entryY=0.5;entryDx=0;entryDy=0;fontSize=15;" parent="3" source="10" target="18" edge="1">
                    <mxGeometry relative="1" as="geometry"/>
                </mxCell>
                <mxCell id="10" value="Viewer State" style="rounded=0;whiteSpace=wrap;html=1;fontSize=15;" parent="3" vertex="1">
                    <mxGeometry x="608" y="70" width="110" height="40" as="geometry"/>
                </mxCell>
                <mxCell id="25" style="edgeStyle=none;html=1;exitX=0;exitY=0.5;exitDx=0;exitDy=0;entryX=0.5;entryY=0;entryDx=0;entryDy=0;fontSize=15;" parent="3" source="18" target="2" edge="1">
                    <mxGeometry relative="1" as="geometry">
                        <Array as="points">
                            <mxPoint x="318" y="90"/>
                        </Array>
                    </mxGeometry>
                </mxCell>
                <mxCell id="18" value="Parms" style="rounded=0;whiteSpace=wrap;html=1;fontSize=15;" parent="3" vertex="1">
                    <mxGeometry x="378" y="70" width="110" height="40" as="geometry"/>
                </mxCell>
                <mxCell id="19" value="GridLevel&lt;br style=&quot;font-size: 10px;&quot;&gt;GridSize&lt;br style=&quot;font-size: 10px;&quot;&gt;...&lt;br style=&quot;font-size: 10px;&quot;&gt;&lt;br style=&quot;font-size: 10px;&quot;&gt;运行时参数:&lt;br style=&quot;font-size: 10px;&quot;&gt;AnimationData&lt;br style=&quot;font-size: 10px;&quot;&gt;HoverIndex" style="text;html=1;strokeColor=none;fillColor=none;align=left;verticalAlign=top;whiteSpace=wrap;rounded=0;fontSize=10;" parent="3" vertex="1">
                    <mxGeometry x="378" y="110" width="120" height="110" as="geometry"/>
                </mxCell>
                <mxCell id="16" value="&lt;span style=&quot;font-weight: 700&quot;&gt;Class Grid&lt;/span&gt;" style="text;html=1;strokeColor=none;fillColor=none;align=center;verticalAlign=middle;whiteSpace=wrap;rounded=0;fontSize=15;" parent="3" vertex="1">
                    <mxGeometry x="33" y="275" width="120" height="30" as="geometry"/>
                </mxCell>
                <mxCell id="28" value="用户输入" style="rounded=0;whiteSpace=wrap;html=1;fontSize=15;" parent="3" vertex="1">
                    <mxGeometry x="608" y="270" width="110" height="40" as="geometry"/>
                </mxCell>
                <mxCell id="30" style="edgeStyle=none;html=1;exitX=0.5;exitY=0;exitDx=0;exitDy=0;entryX=0.5;entryY=1;entryDx=0;entryDy=0;fontSize=15;" parent="3" source="28" target="10" edge="1">
                    <mxGeometry relative="1" as="geometry"/>
                </mxCell>
                <mxCell id="36" value="鼠标点击&lt;br&gt;鼠标射线检测" style="edgeLabel;html=1;align=center;verticalAlign=middle;resizable=0;points=[];fontSize=10;" parent="30" vertex="1" connectable="0">
                    <mxGeometry x="0.1228" relative="1" as="geometry">
                        <mxPoint as="offset"/>
                    </mxGeometry>
                </mxCell>
                <mxCell id="31" value="根据当前参数动态构建模型" style="text;html=1;strokeColor=none;fillColor=none;align=center;verticalAlign=middle;whiteSpace=wrap;rounded=0;fontSize=10;" parent="3" vertex="1">
                    <mxGeometry x="258" y="310" width="123" height="30" as="geometry"/>
                </mxCell>
                <mxCell id="34" style="edgeStyle=none;html=1;exitX=1;exitY=0.5;exitDx=0;exitDy=0;entryX=0;entryY=0.5;entryDx=0;entryDy=0;fontSize=15;" parent="3" source="32" target="28" edge="1">
                    <mxGeometry relative="1" as="geometry"/>
                </mxCell>
                <mxCell id="32" value="视图刷新" style="rounded=0;whiteSpace=wrap;html=1;" parent="3" vertex="1">
                    <mxGeometry x="438" y="270" width="120" height="40" as="geometry"/>
                </mxCell>
                <mxCell id="33" value="" style="edgeStyle=none;html=1;fontSize=15;" parent="3" source="2" target="32" edge="1">
                    <mxGeometry relative="1" as="geometry"/>
                </mxCell>
                <mxCell id="37" value="&lt;span style=&quot;font-size: 13px&quot;&gt;Class AnimationHelper&lt;br style=&quot;font-size: 13px&quot;&gt;处理动画逻辑&lt;br style=&quot;font-size: 13px&quot;&gt;&lt;/span&gt;" style="text;html=1;strokeColor=none;fillColor=none;align=center;verticalAlign=middle;whiteSpace=wrap;rounded=0;fontSize=13;fontStyle=0" parent="3" vertex="1">
                    <mxGeometry x="587" y="30" width="162" height="30" as="geometry"/>
                </mxCell>
                <mxCell id="4" value="Car Game HDA" style="text;html=1;strokeColor=none;fillColor=none;align=center;verticalAlign=middle;whiteSpace=wrap;rounded=0;fontSize=15;" parent="1" vertex="1">
                    <mxGeometry x="23" y="60" width="110" height="30" as="geometry"/>
                </mxCell>
            </root>
        </mxGraphModel>
    </diagram>
</mxfile>